<?xml version="1.0" standalone="no"?>
<!DOCTYPE svg PUBLIC "-//W3C//DTD SVG 20010904//EN"
 "http://www.w3.org/TR/2001/REC-SVG-20010904/DTD/svg10.dtd">
<svg version="1.0" xmlns="http://www.w3.org/2000/svg"
 width="750.000000pt" height="750.000000pt" viewBox="0 0 750.000000 750.000000"
 preserveAspectRatio="xMidYMid meet">
<metadata>
Created by potrace 1.14, written by Peter Selinger 2001-2017
</metadata>
<g transform="translate(0.000000,750.000000) scale(0.100000,-0.100000)"
fill="#000000" stroke="none">
<path d="M0 3750 l0 -3750 3750 0 3750 0 0 3750 0 3750 -3750 0 -3750 0 0
-3750z m490 2295 l0 -105 30 0 30 0 0 105 0 105 30 0 30 0 -2 -242 -3 -243
-27 -3 -27 -3 -3 108 c-3 107 -3 107 -28 107 -25 0 -25 0 -28 -107 l-3 -108
-27 3 -27 3 -3 243 -2 242 30 0 30 0 0 -105z m348 89 c22 -15 22 -19 22 -228
0 -242 2 -236 -80 -244 -42 -4 -52 -1 -74 21 l-26 26 0 197 c0 189 1 199 22
221 26 28 101 32 136 7z m262 -4 c16 -16 20 -33 20 -85 l0 -65 -30 0 c-29 0
-30 2 -30 43 0 51 -11 70 -36 65 -16 -3 -19 -14 -22 -76 l-3 -72 39 0 c25 0
46 -7 60 -20 20 -19 22 -31 22 -120 0 -96 -1 -99 -27 -120 -22 -18 -37 -21
-75 -17 -70 6 -78 17 -78 103 l0 74 30 0 c28 0 29 -1 32 -57 2 -44 7 -57 20
-59 28 -4 39 21 36 82 l-3 59 -44 7 c-68 12 -71 17 -71 139 0 100 2 109 22
123 33 23 113 21 138 -4z m230 -10 c0 -25 -4 -30 -25 -30 l-25 0 -2 -212 -3
-213 -30 0 -30 0 -3 213 -2 212 -25 0 c-21 0 -25 5 -25 30 l0 30 85 0 85 0 0
-30z m164 -7 c9 -51 56 -425 56 -440 0 -8 -12 -13 -29 -13 -24 0 -29 5 -35 31
-3 17 -6 42 -6 56 0 21 -4 24 -27 21 -26 -3 -28 -7 -33 -53 -5 -48 -6 -50 -35
-50 -27 0 -30 3 -28 30 5 54 54 430 58 443 2 6 20 12 39 12 32 0 35 -3 40 -37z
m266 17 c16 -16 20 -33 20 -90 l0 -70 -30 0 c-28 0 -29 1 -32 58 -3 53 -5 57
-28 57 l-25 0 -3 -174 c-3 -181 0 -194 39 -184 16 5 19 15 19 69 0 50 -3 64
-15 64 -10 0 -15 10 -15 30 0 29 2 30 45 30 l45 0 0 -108 c0 -138 -6 -147 -90
-147 -91 0 -90 -2 -90 242 0 190 1 204 20 223 15 15 33 20 70 20 37 0 55 -5
70 -20z m250 -9 c0 -28 -2 -30 -47 -33 l-48 -3 -3 -72 -3 -73 46 0 c44 0 45
-1 45 -32 0 -32 -1 -33 -42 -33 l-43 0 0 -74 0 -74 45 -1 c43 -1 45 -2 45 -31
l0 -30 -77 -3 -78 -3 0 246 0 245 80 0 80 0 0 -29z m225 4 c21 -20 25 -34 25
-85 l0 -60 -34 0 -35 0 -3 53 c-3 44 -6 52 -23 52 -18 0 -20 -8 -23 -72 l-3
-73 36 0 c25 0 44 -8 60 -25 23 -22 25 -32 25 -115 0 -83 -2 -93 -25 -115 -34
-35 -106 -35 -141 0 -22 22 -25 32 -22 88 3 62 3 62 33 62 29 0 30 -2 35 -55
4 -47 8 -55 25 -55 18 0 20 8 23 73 l3 72 -36 0 c-25 0 -44 8 -60 25 -23 22
-25 32 -25 115 0 83 2 93 25 115 18 19 35 25 70 25 35 0 52 -6 70 -25z m403 9
c17 -12 22 -25 22 -60 0 -42 -1 -44 -29 -44 -25 0 -30 4 -33 28 -2 19 -9 28
-24 30 -34 5 -34 -19 -1 -99 27 -62 33 -70 35 -47 4 30 35 58 64 58 23 0 25
-52 3 -70 -26 -21 -20 -138 10 -206 14 -31 25 -58 25 -60 0 -9 -57 -3 -67 7
-8 8 -17 8 -31 0 -30 -16 -84 -14 -110 5 -21 14 -22 22 -22 144 0 110 2 130
17 138 15 9 15 12 0 51 -36 90 -10 141 73 141 25 0 55 -7 68 -16z m326 -31 c3
-27 9 -92 12 -146 4 -55 10 -93 14 -85 4 7 12 58 19 113 16 134 17 137 49 133
26 -3 27 -6 43 -114 24 -156 25 -158 33 -69 21 223 18 210 49 213 24 3 27 0
27 -25 0 -37 -40 -435 -45 -450 -2 -7 -20 -13 -39 -13 l-35 0 -6 58 c-4 31
-12 93 -19 137 l-12 80 -13 -105 c-20 -161 -21 -165 -62 -165 l-34 0 -22 215
c-29 286 -29 270 6 270 26 0 29 -3 35 -47z m472 22 c25 -25 26 -30 22 -120 -2
-70 -7 -98 -19 -111 -15 -15 -14 -24 16 -121 34 -108 33 -120 -12 -111 -18 3
-29 28 -64 146 -11 39 -25 72 -30 72 -4 0 -10 -48 -11 -107 l-3 -108 -30 0
-30 0 -3 230 c-1 126 0 235 2 242 4 9 27 13 71 13 57 0 69 -3 91 -25z m264 5
c19 -19 20 -33 20 -224 l0 -205 -27 -21 c-22 -18 -37 -21 -75 -17 -80 7 -78 1
-78 243 0 209 0 213 22 228 33 23 113 21 138 -4z m177 -102 l31 -123 1 123 1
122 30 0 30 0 0 -246 0 -245 -27 3 c-27 3 -29 8 -60 128 l-31 125 -1 -128 -1
-128 -27 3 -28 3 -3 243 -2 242 28 0 c29 0 29 -1 59 -122z m321 106 c19 -13
22 -24 22 -90 l0 -74 -30 0 c-28 0 -29 1 -32 58 -3 49 -6 57 -23 57 -19 0 -20
-7 -20 -180 0 -173 1 -180 20 -180 18 0 20 8 23 68 2 56 0 67 -13 67 -12 0
-15 8 -13 28 3 25 6 27 48 27 l45 0 3 -103 c3 -97 2 -103 -22 -127 -35 -35
-107 -35 -141 0 -25 24 -25 25 -25 220 0 195 0 196 25 220 29 30 97 34 133 9z
m252 -14 c0 -29 -2 -30 -45 -30 l-45 0 0 -75 0 -75 40 0 c38 0 40 -1 40 -32 0
-32 -2 -33 -37 -32 l-38 1 -5 -106 -5 -106 -30 0 -30 0 -3 230 c-1 126 0 235
2 242 4 9 29 13 81 13 l75 0 0 -30z m132 -182 c3 -205 4 -213 23 -213 19 0 20
8 23 213 l2 212 30 0 30 0 0 -229 c0 -226 0 -230 -22 -245 -12 -9 -41 -16 -63
-16 -22 0 -51 7 -63 16 -22 15 -22 19 -22 245 l0 229 30 0 30 0 2 -212z m250
0 l3 -211 40 -1 c38 -1 40 -3 40 -31 l0 -30 -72 -3 -73 -3 0 246 0 245 30 0
30 0 2 -212z m446 196 c22 -15 22 -19 22 -228 0 -186 -2 -215 -16 -227 -10 -8
-48 -15 -90 -17 l-74 -4 0 246 0 246 68 0 c45 0 75 -5 90 -16z m252 -13 c0
-28 -2 -30 -47 -33 l-48 -3 -3 -72 -3 -73 46 0 c44 0 45 -1 45 -32 0 -32 -1
-33 -42 -33 l-43 0 0 -74 0 -74 45 -1 c43 -1 45 -2 48 -34 l3 -33 -78 3 -78 3
-3 243 -2 242 80 0 80 0 0 -29z m240 -1 c0 -27 -3 -30 -30 -30 l-30 0 0 -215
0 -215 -30 0 -30 0 0 215 0 215 -30 0 c-27 0 -30 3 -30 30 l0 30 90 0 90 0 0
-30z m160 21 c0 -6 14 -115 30 -243 17 -128 30 -234 30 -236 0 -2 -15 -2 -32
0 -32 3 -33 5 -38 53 -5 46 -7 50 -32 53 -26 3 -28 0 -28 -30 0 -60 -10 -78
-41 -78 -16 0 -29 4 -29 8 0 4 14 111 30 237 17 126 30 233 30 237 0 4 18 8
40 8 22 0 40 -4 40 -9z m180 -236 l0 -245 -30 0 -30 0 0 245 0 245 30 0 30 0
0 -245z m139 208 c6 -21 18 -72 27 -113 9 -41 19 -80 23 -87 3 -7 6 43 6 110
l0 122 28 3 27 3 0 -246 0 -246 -27 3 c-26 3 -28 9 -57 128 l-31 125 -3 -128
-3 -128 -27 3 -27 3 -3 230 c-1 126 0 235 2 242 3 7 17 13 30 13 21 0 27 -7
35 -37z m349 5 c3 -27 2 -28 -47 -28 l-51 0 0 -75 0 -75 46 0 c45 0 45 0 42
-32 -3 -29 -6 -32 -43 -32 l-40 -1 0 -74 0 -74 45 -1 c43 -1 45 -2 45 -31 l0
-30 -77 -3 -78 -3 0 246 0 246 78 -3 c76 -3 77 -3 80 -30z m222 2 c0 -29 -2
-30 -45 -30 l-45 0 0 -74 0 -75 42 -3 c39 -3 42 -5 42 -32 0 -28 -2 -30 -42
-29 l-42 1 0 -77 0 -76 45 3 45 4 0 -36 0 -37 -77 3 -78 3 -3 230 c-1 126 0
235 2 242 4 9 29 13 81 13 l75 0 0 -30z m230 10 c16 -16 20 -33 20 -85 l0 -65
-29 0 c-29 0 -30 2 -33 53 -3 48 -5 52 -28 52 -24 0 -25 -3 -28 -72 l-3 -73
41 0 c68 0 80 -21 80 -139 0 -97 -1 -100 -27 -121 -22 -18 -37 -21 -75 -17
-70 6 -78 17 -78 103 l0 74 30 0 c28 0 29 -1 32 -57 2 -44 7 -57 20 -59 28 -4
39 21 36 82 l-3 59 -44 7 c-68 12 -71 17 -71 139 0 100 2 109 22 123 33 23
113 21 138 -4z m-3030 -656 c512 -79 976 -383 1247 -819 133 -213 206 -415
259 -710 l7 -40 9 30 c5 17 6 56 2 88 -6 54 -5 59 12 55 15 -2 20 -15 24 -63
4 -43 8 -56 14 -45 6 8 9 32 7 53 -2 33 0 38 16 35 10 -2 19 -10 19 -18 1 -8
2 -19 3 -25 1 -5 15 5 31 24 31 37 50 34 50 -7 0 -15 2 -84 5 -154 3 -71 2
-128 -3 -128 -25 0 -32 29 -32 132 0 59 -4 108 -8 108 -5 0 -17 -9 -27 -20
-15 -17 -17 -30 -11 -92 3 -39 9 -82 13 -96 5 -20 2 -23 -13 -20 -16 3 -21 17
-29 87 -10 80 -11 82 -27 64 -13 -14 -18 -36 -18 -76 0 -44 -3 -57 -15 -57
-12 0 -15 -18 -16 -102 0 -57 -6 -145 -13 -195 -6 -51 -9 -93 -5 -93 16 0 29
31 40 98 8 51 16 72 27 72 11 0 13 -9 7 -46 -3 -26 -9 -53 -12 -60 -7 -20 10
-17 40 6 19 15 27 32 29 63 3 46 28 59 38 20 5 -21 5 -21 28 -3 12 10 22 25
22 34 0 19 5 20 31 5 17 -9 18 -13 7 -26 -9 -12 -13 -54 -13 -150 0 -73 -3
-133 -7 -133 -16 0 -20 27 -19 126 0 57 -3 104 -8 104 -5 0 -18 -8 -30 -17
-18 -16 -21 -31 -23 -111 -2 -53 -7 -92 -13 -92 -5 0 -12 36 -15 80 l-5 80
-33 -26 c-29 -23 -32 -30 -30 -72 2 -26 -1 -49 -7 -52 -6 -3 -11 13 -13 38 -2
23 -6 42 -10 42 -25 -2 -50 -44 -70 -117 -177 -665 -696 -1155 -1382 -1305
-93 -20 -132 -22 -350 -22 -218 0 -257 2 -350 22 -243 54 -503 166 -685 297
-243 174 -448 417 -576 681 -57 117 -134 345 -144 424 -9 70 -13 75 -36 54
-14 -12 -19 -31 -19 -66 0 -35 -4 -48 -12 -45 -7 2 -13 18 -14 35 0 18 -4 31
-10 31 -25 -4 -54 -34 -54 -55 0 -26 -10 -30 -27 -13 -9 9 -18 6 -38 -10 -27
-21 -45 -20 -45 2 0 7 18 25 40 40 l39 28 3 104 c4 133 21 139 28 10 l5 -95
33 26 c32 25 32 27 32 110 0 68 3 84 15 84 12 0 15 -15 15 -71 0 -58 3 -69 13
-61 10 9 11 28 6 79 -5 37 -8 107 -8 156 -1 51 -5 87 -11 87 -5 0 -10 23 -10
50 0 28 -3 50 -6 50 -3 0 -19 -9 -34 -20 -21 -15 -30 -30 -32 -58 -3 -40 -21
-50 -26 -14 -4 26 -10 27 -34 5 -15 -13 -21 -14 -31 -4 -9 10 -4 19 26 44 l37
32 0 98 c0 78 3 97 15 97 11 0 15 -19 17 -91 l3 -91 28 22 c24 19 27 28 27 86
0 50 3 64 15 64 11 0 15 -12 15 -50 0 -27 3 -50 8 -50 4 0 15 43 25 95 24 130
86 315 151 449 339 697 1106 1097 1876 980z m3013 -1478 c-1 -53 2 -96 6 -96
3 0 17 7 30 16 21 15 23 22 18 76 -5 51 -3 59 11 56 12 -2 18 -15 20 -41 4
-42 11 -46 36 -18 11 13 16 32 14 57 -2 29 1 39 12 39 8 0 16 -10 18 -23 3
-23 4 -23 23 -6 10 9 19 23 19 31 0 7 8 13 18 13 15 0 17 -14 18 -150 1 -113
-2 -150 -11 -150 -17 0 -25 47 -25 143 0 79 0 80 -20 62 -17 -16 -20 -31 -20
-107 0 -67 -3 -89 -12 -86 -8 3 -14 29 -16 71 -2 37 -6 67 -9 67 -4 0 -15 -7
-25 -17 -13 -12 -18 -30 -18 -70 0 -39 -4 -54 -12 -51 -7 3 -14 19 -16 36 -4
35 -5 36 -33 22 -13 -8 -19 -21 -19 -45 0 -37 -8 -43 -28 -23 -9 9 -16 7 -32
-7 -16 -14 -23 -16 -32 -7 -9 9 -4 20 20 45 l32 33 0 110 c0 61 3 114 7 118
20 20 28 -8 26 -98z m-865 66 c4 -27 10 -27 38 -1 13 12 30 19 38 16 14 -5 16
-30 16 -153 0 -112 -3 -145 -12 -142 -9 3 -14 40 -16 126 l-3 122 -30 -22 -30
-23 2 -95 c2 -81 -1 -95 -15 -98 -14 -3 -16 7 -16 72 0 42 -4 76 -8 76 -5 0
-19 -11 -31 -24 -19 -20 -22 -33 -20 -77 3 -44 0 -54 -14 -57 -14 -3 -17 4
-17 37 0 47 -8 50 -38 18 -14 -14 -19 -30 -16 -44 7 -26 -10 -38 -26 -18 -6 7
-17 12 -25 9 -23 -9 -28 17 -6 39 17 19 21 38 23 127 2 85 6 105 18 105 12 0
15 -16 12 -93 -3 -98 -2 -100 41 -64 13 12 17 31 17 94 0 70 2 79 18 76 14 -3
16 -12 14 -56 -4 -58 4 -64 37 -28 16 17 20 30 15 50 -8 32 2 59 19 54 6 -3
13 -14 15 -26z m-4545 -145 c1 -86 0 -157 -3 -157 -23 0 -30 33 -30 139 l0
116 -27 -28 c-27 -27 -28 -30 -24 -127 2 -86 1 -100 -13 -100 -18 0 -18 0 -16
93 2 75 -10 85 -49 43 -18 -19 -22 -33 -20 -75 2 -28 0 -54 -4 -57 -14 -14
-27 10 -27 48 l0 41 -25 -23 c-14 -13 -25 -34 -25 -47 0 -21 -4 -23 -22 -18
-35 11 -43 22 -28 40 10 12 11 42 6 125 -4 74 -3 111 5 115 5 4 12 5 14 3 3
-2 7 -48 11 -101 4 -53 10 -97 14 -97 3 0 17 11 30 24 20 22 22 34 21 100 -1
62 1 76 14 76 11 0 15 -11 15 -44 0 -24 3 -52 6 -61 6 -14 9 -13 30 6 18 17
24 33 24 66 0 44 18 59 27 23 7 -27 14 -25 48 10 16 17 33 29 38 27 5 -1 9
-73 10 -160z m4980 104 c-3 -55 1 -60 29 -34 11 10 18 30 18 55 0 40 18 52 27
18 6 -24 16 -25 33 -5 7 8 20 15 30 15 20 0 30 -68 30 -206 0 -66 -3 -84 -14
-84 -11 0 -15 24 -18 114 -1 63 -6 118 -10 122 -5 4 -17 -1 -29 -12 -19 -18
-20 -25 -14 -118 6 -81 5 -98 -6 -94 -16 5 -26 45 -28 111 -1 51 -9 57 -35 28
-14 -15 -17 -33 -14 -78 2 -46 0 -58 -12 -58 -10 0 -16 13 -18 42 l-3 43 -25
-16 c-18 -12 -24 -25 -24 -50 0 -24 -5 -34 -15 -34 -8 0 -15 7 -15 15 0 20
-12 19 -42 -5 -14 -10 -28 -16 -32 -13 -14 14 -4 32 29 54 l35 24 0 103 c0 79
3 103 13 100 8 -3 13 -32 15 -86 2 -45 6 -82 11 -82 4 0 17 9 29 20 18 18 22
32 22 89 0 37 3 71 7 75 17 17 28 -5 26 -53z m-6007 25 c6 -16 -14 -275 -22
-288 -8 -12 -34 11 -29 25 7 17 24 211 19 216 -2 2 -20 -9 -40 -24 l-36 -27 2
-92 c3 -113 3 -111 -15 -96 -11 9 -15 32 -15 81 0 74 -11 87 -44 50 -13 -14
-17 -33 -15 -68 3 -38 0 -49 -13 -51 -13 -3 -17 6 -20 38 l-3 42 -27 -22 c-19
-15 -28 -31 -28 -51 0 -29 -22 -41 -35 -19 -4 6 -15 8 -25 5 -32 -10 -35 17
-4 41 28 23 29 28 34 124 3 57 9 100 15 100 6 0 11 -37 13 -85 1 -47 6 -85 9
-85 4 0 17 10 30 22 17 16 23 32 23 67 0 59 10 93 24 88 7 -3 10 -24 8 -56 -1
-28 1 -51 4 -51 17 0 44 35 44 57 0 23 23 32 35 13 4 -6 24 4 48 25 47 39 55
41 63 21z m250 -74 c0 -45 4 -85 7 -88 3 -3 17 2 31 13 23 16 25 25 26 85 0
38 5 70 11 74 18 11 27 -15 21 -62 -5 -49 -2 -51 33 -28 20 13 25 25 25 55 0
28 4 39 15 39 9 0 15 -10 15 -26 l0 -25 29 21 c18 12 32 16 36 10 5 -8 10
-251 6 -285 -1 -5 -8 -1 -16 9 -11 15 -15 48 -15 123 0 101 -1 103 -20 93 -18
-10 -20 -21 -20 -116 0 -80 -3 -105 -12 -102 -9 3 -14 32 -16 86 -2 45 -6 82
-10 82 -4 0 -18 -7 -30 -16 -21 -14 -23 -23 -21 -83 2 -52 -1 -66 -12 -66 -10
0 -16 16 -19 53 l-5 54 -28 -22 c-20 -16 -28 -31 -27 -49 3 -41 1 -51 -11 -51
-6 0 -13 9 -16 20 -6 24 -20 25 -45 3 -15 -13 -21 -14 -31 -4 -9 10 -4 19 26
43 l37 30 0 93 c0 99 6 128 23 122 7 -2 12 -36 13 -85z m-7 -449 c-4 -32 -8
-80 -8 -106 l-1 -48 30 23 c29 21 30 25 30 95 0 57 3 73 15 73 10 0 15 -16 17
-61 l3 -61 28 25 c21 20 27 35 27 67 0 48 22 51 30 5 l5 -29 36 32 c47 41 63
42 55 1 -3 -17 -6 -88 -6 -156 0 -113 -2 -124 -16 -112 -10 8 -13 21 -9 38 7
29 -4 191 -14 191 -3 0 -19 -12 -34 -26 -27 -25 -27 -25 -21 -122 7 -90 6 -96
-9 -83 -13 10 -17 31 -17 87 0 41 -3 74 -8 74 -4 0 -18 -7 -30 -16 -19 -13
-22 -24 -22 -85 0 -86 -22 -93 -30 -10 l-5 53 -27 -22 c-19 -14 -28 -31 -28
-50 0 -35 -19 -50 -27 -20 l-6 21 -23 -22 c-19 -18 -27 -20 -36 -11 -9 9 -4
21 24 50 l37 37 6 115 c8 137 11 152 29 128 8 -12 10 -34 5 -75z m-267 67 c2
-5 2 -80 0 -166 -2 -115 -6 -154 -15 -151 -8 2 -13 43 -15 131 l-3 127 -30
-22 -31 -22 3 -106 c5 -133 -12 -147 -26 -21 -10 87 -11 90 -29 77 -16 -12
-19 -25 -17 -90 1 -43 -2 -77 -7 -77 -14 0 -22 26 -22 71 0 45 -8 48 -39 15
-15 -16 -21 -31 -17 -44 8 -25 -10 -38 -30 -21 -11 9 -18 8 -32 -5 -24 -21
-42 -20 -42 2 1 9 15 26 33 37 l32 20 7 119 c4 65 9 120 12 123 17 18 24 -17
19 -102 -6 -99 -1 -111 32 -75 12 14 18 37 19 82 1 73 20 90 24 23 2 -25 6
-45 9 -45 19 0 43 37 43 67 0 37 16 44 28 12 7 -19 10 -18 42 15 37 37 46 42
52 26z m936 -28 c2 -18 7 -32 11 -32 15 0 31 25 31 47 0 24 7 27 34 17 18 -7
21 -35 7 -49 -5 -6 -6 -62 -2 -135 5 -69 6 -129 3 -133 -13 -24 -24 22 -29
122 -3 61 -8 111 -11 111 -3 0 -14 -7 -24 -17 -15 -13 -18 -32 -18 -115 0 -75
-3 -99 -12 -95 -9 3 -13 27 -12 80 1 43 -2 77 -5 77 -4 0 -19 -13 -34 -28 -23
-24 -27 -37 -27 -86 0 -42 -3 -57 -12 -54 -7 3 -14 19 -16 36 -4 42 -16 40
-50 -8 -41 -59 -58 -50 -54 30 6 113 27 251 37 248 12 -3 12 -39 1 -163 l-8
-90 35 34 c35 33 36 36 39 118 2 49 7 82 13 81 6 -2 9 -29 8 -60 -1 -32 2 -58
6 -58 4 0 20 13 35 29 22 23 27 37 26 72 -2 59 -2 61 13 57 6 -3 13 -19 15
-36z m4778 13 c4 -8 1 -22 -6 -30 -8 -9 -11 -56 -9 -147 1 -75 -2 -133 -7
-133 -5 0 -11 53 -14 117 -3 64 -8 120 -12 124 -5 4 -17 -1 -28 -11 -18 -16
-20 -31 -20 -123 0 -92 -2 -103 -15 -92 -11 9 -15 33 -15 91 0 44 -4 79 -9 79
-5 0 -23 -16 -40 -36 -29 -33 -31 -39 -25 -86 6 -41 4 -50 -7 -46 -8 2 -15 21
-17 41 -2 20 -7 37 -11 37 -13 0 -53 -48 -48 -57 3 -5 2 -15 -3 -23 -7 -11
-12 -12 -21 -3 -6 6 -17 9 -24 7 -23 -9 -27 17 -6 39 17 19 21 38 23 127 4
132 21 139 28 12 l5 -94 28 22 c25 20 27 27 27 96 0 61 3 74 16 74 13 0 15
-10 12 -55 -1 -30 0 -55 4 -55 3 0 20 12 37 26 24 19 31 34 31 60 0 37 19 47
27 14 7 -28 19 -25 45 10 24 33 45 39 54 15z m222 -149 c7 -76 11 -141 8 -143
-3 -3 -12 -3 -20 0 -10 4 -16 33 -20 114 -4 59 -8 123 -11 141 -3 27 -1 33 13
30 14 -3 19 -26 30 -142z m99 -7 c11 -128 7 -169 -16 -144 -11 13 -34 262 -26
276 19 30 31 -7 42 -132z m79 123 c14 -9 27 -262 14 -262 -19 0 -28 39 -35
153 -7 112 -4 126 21 109z m-4264 -1289 c21 -20 38 -46 38 -56 0 -25 -65 -105
-96 -119 -13 -6 -24 -17 -24 -24 0 -16 -102 -124 -117 -124 -12 0 -96 67 -101
81 -3 8 245 279 256 279 3 0 23 -17 44 -37z m2679 -9 c11 -14 9 -19 -14 -36
-35 -25 -34 -35 9 -81 l35 -38 26 21 c24 18 28 19 42 6 13 -14 12 -18 -8 -40
-26 -28 -21 -43 26 -89 l29 -27 24 25 c22 23 25 24 42 8 18 -16 18 -17 -4 -41
-13 -13 -35 -32 -49 -43 l-26 -19 -109 128 c-60 70 -116 136 -124 146 -13 17
-11 22 30 57 51 44 53 45 71 23z m-2517 -128 c44 -41 47 -46 35 -68 -28 -53
-91 -128 -107 -128 -12 0 -25 -23 -47 -85 -30 -84 -30 -85 -52 -70 l-22 16 29
80 c46 123 38 132 -30 34 -47 -67 -59 -75 -79 -51 -10 12 9 43 101 165 62 83
116 151 119 151 3 0 27 -20 53 -44z m2406 -48 c149 -212 164 -237 150 -253 -7
-9 -17 -14 -22 -13 -4 2 -35 44 -68 93 -33 50 -60 87 -60 84 0 -4 11 -32 25
-63 40 -91 17 -102 -58 -28 l-49 47 66 -94 c61 -86 65 -95 49 -107 -22 -17
-27 -11 -152 172 l-91 132 25 16 c24 16 26 15 90 -45 l65 -62 -21 49 c-12 27
-27 63 -34 79 -12 26 -11 33 2 48 9 9 20 17 24 17 5 0 31 -33 59 -72z m-2252
-54 c4 -3 -177 -296 -194 -314 -12 -12 -16 -12 -30 1 -14 15 -7 30 76 165 115
185 108 177 129 162 9 -7 17 -13 19 -14z m2009 -36 c6 -7 43 -77 84 -154 72
-139 74 -142 56 -162 -25 -28 -75 -51 -98 -45 -23 6 -172 284 -167 310 4 22
65 63 93 63 13 0 27 -6 32 -12z m-1925 -10 c15 -12 14 -22 -8 -108 -13 -52
-23 -97 -23 -100 0 -3 20 34 45 83 43 84 67 106 80 72 5 -12 -143 -314 -165
-338 -4 -4 -15 -1 -24 5 -15 12 -15 20 8 108 14 52 24 97 24 100 0 3 -20 -34
-45 -82 -42 -83 -63 -103 -80 -76 -7 11 154 348 166 348 4 0 13 -6 22 -12z
m1800 -229 c37 -90 68 -169 68 -175 0 -13 -28 -27 -39 -20 -4 3 -20 37 -35 75
-29 73 -32 77 -54 62 -11 -6 -7 -23 17 -81 25 -57 29 -75 19 -82 -27 -16 -37
-6 -68 70 -18 42 -50 120 -71 172 -37 88 -38 96 -22 107 25 19 29 17 48 -34
42 -112 44 -114 64 -103 18 9 17 13 -12 85 -27 65 -29 77 -17 85 8 5 19 8 25
7 5 -2 40 -77 77 -168z m-1554 120 c31 -12 37 -35 23 -88 -15 -56 -23 -65 -50
-56 -20 6 -20 8 -6 43 18 41 13 65 -11 60 -11 -2 -33 -45 -64 -128 -43 -111
-46 -126 -33 -137 9 -7 19 -10 24 -8 12 8 39 95 28 95 -11 0 -12 20 -1 38 6 9
16 10 40 1 18 -6 32 -14 32 -17 0 -4 -12 -40 -26 -80 -31 -85 -49 -99 -102
-81 -46 15 -62 27 -62 48 0 32 103 296 123 314 19 17 29 17 85 -4z m1072 -86
c0 -5 14 -89 30 -188 29 -181 29 -194 -7 -195 -6 0 -16 31 -23 73 -6 39 -15
90 -20 112 -7 36 -8 33 -9 -32 -1 -65 -3 -73 -20 -73 -15 0 -24 15 -41 66 -12
36 -23 64 -25 62 -1 -2 6 -50 15 -108 10 -58 16 -108 13 -112 -2 -5 -13 -8
-24 -8 -10 0 -19 3 -19 8 0 4 -13 88 -29 187 -16 99 -28 180 -28 181 1 1 14 4
29 8 25 6 28 3 53 -67 15 -39 32 -76 36 -81 5 -6 9 27 9 76 0 74 3 87 18 91
28 8 42 7 42 0z m-647 -19 c22 -5 27 -11 25 -27 -2 -16 -9 -21 -24 -19 -24 3
-28 -13 -54 -203 -17 -123 -17 -125 -46 -125 -23 0 -24 3 -19 33 8 49 45 295
45 301 0 3 -9 6 -20 6 -15 0 -20 7 -20 26 0 25 2 25 43 19 23 -3 55 -8 70 -11z
m126 -98 c-2 -74 0 -81 17 -81 17 0 19 9 22 83 3 81 3 82 29 82 l26 0 -8 -187
c-3 -104 -10 -192 -14 -196 -4 -4 -15 -5 -24 -1 -14 5 -17 21 -17 85 0 46 -4
79 -10 79 -5 0 -13 0 -17 0 -5 0 -10 -35 -13 -77 -5 -77 -5 -78 -33 -81 -27
-3 -28 -2 -23 30 3 18 8 103 11 188 4 85 9 158 11 161 2 4 13 5 25 2 18 -5 20
-12 18 -87z m281 70 c0 -19 -7 -25 -35 -30 l-35 -7 0 -61 0 -60 35 6 c33 6 35
5 35 -19 0 -21 -5 -25 -29 -25 -38 0 -42 -7 -34 -68 6 -50 6 -51 42 -54 29 -2
37 -8 39 -25 3 -21 0 -23 -46 -23 -28 0 -57 -3 -65 -6 -13 -4 -16 16 -21 123
-4 70 -9 158 -12 195 l-5 67 63 4 c35 2 64 4 66 5 1 1 2 -9 2 -22z"/>
<path d="M746 6075 c-3 -9 -6 -88 -6 -175 0 -161 4 -177 40 -176 13 1 15 28
15 181 0 176 0 180 -21 183 -13 2 -24 -4 -28 -13z"/>
<path d="M1446 5949 c-2 -8 -6 -38 -9 -66 -4 -46 -2 -53 14 -53 17 0 18 6 12
63 -6 66 -10 78 -17 56z"/>
<path d="M2543 5815 c2 -83 4 -90 22 -90 31 0 31 52 1 122 l-26 58 3 -90z"/>
<path d="M3340 6016 c0 -75 0 -76 25 -76 26 0 26 1 23 73 -3 66 -5 72 -25 75
-22 3 -23 0 -23 -72z"/>
<path d="M3604 6077 c-2 -7 -3 -89 -2 -182 3 -143 5 -170 18 -171 36 -1 40 15
40 176 0 87 -3 165 -6 174 -7 19 -43 21 -50 3z"/>
<path d="M5187 6084 c-8 -8 -10 -348 -2 -356 3 -3 17 -3 30 0 l25 4 -2 177
c-3 169 -4 176 -23 179 -12 2 -24 0 -28 -4z"/>
<path d="M5880 5929 c0 -20 -3 -51 -6 -68 -6 -26 -4 -31 13 -31 18 0 20 5 15
53 -6 65 -21 98 -22 46z"/>
<path d="M3576 5359 c-354 -37 -692 -192 -958 -439 -253 -234 -423 -539 -500
-893 -19 -88 -22 -133 -22 -322 0 -189 3 -234 22 -322 130 -597 534 -1058
1099 -1252 569 -195 1208 -60 1657 351 256 234 431 543 508 898 19 91 22 134
22 325 0 246 -13 333 -79 531 -243 731 -980 1204 -1749 1123z m879 -368 c105
-22 208 -66 277 -119 27 -20 89 -80 137 -133 84 -94 88 -100 134 -225 26 -71
54 -158 62 -194 19 -84 19 -211 0 -280 -20 -72 -31 -130 -44 -216 -15 -102
-38 -147 -131 -259 -86 -103 -162 -213 -180 -260 -5 -14 -23 -43 -40 -63 -35
-44 -54 -125 -44 -195 5 -40 16 -59 58 -106 46 -52 176 -280 176 -309 0 -6
-39 -45 -87 -87 -302 -261 -636 -385 -1035 -385 l-160 0 6 28 c14 56 69 153
141 247 41 54 75 101 75 105 0 4 -7 24 -15 44 -9 20 -34 100 -56 179 -23 80
-49 151 -60 163 -16 17 -36 22 -102 27 -108 8 -211 44 -254 91 l-32 34 1 134
c1 106 -2 142 -17 176 -13 31 -16 56 -11 90 8 59 -7 82 -70 112 -62 31 -72 55
-44 111 31 59 96 155 137 202 52 58 59 85 31 121 -20 27 -23 43 -23 121 0 83
3 97 39 175 69 154 87 210 96 310 12 143 38 193 110 215 14 4 77 33 141 65
191 96 265 111 519 105 117 -3 205 -11 265 -24z m-870 -40 c39 -7 37 -7 -30
-14 -200 -20 -368 -89 -474 -195 -85 -86 -119 -152 -176 -342 -41 -136 -48
-171 -54 -285 -9 -148 -27 -199 -107 -296 -66 -81 -104 -140 -104 -165 0 -29
32 -67 87 -105 l45 -32 -6 -64 c-8 -76 -1 -88 58 -105 32 -9 36 -13 19 -16
-34 -5 -39 -44 -14 -108 13 -34 21 -79 21 -115 0 -65 16 -114 47 -141 29 -26
124 -56 246 -78 59 -11 116 -24 126 -29 28 -15 39 -54 56 -191 15 -121 21
-441 9 -453 -10 -9 -171 51 -279 104 -146 73 -137 60 -114 154 16 62 19 102
16 180 -3 55 -10 112 -15 126 -15 38 -66 65 -166 89 -104 24 -140 43 -168 88
-17 28 -19 42 -13 106 6 57 4 80 -9 104 -20 38 -20 72 -1 117 l14 35 -37 18
c-40 19 -43 29 -28 109 9 52 -12 77 -79 94 -51 13 -85 48 -85 88 1 39 30 96
107 212 106 158 104 150 97 276 -5 83 -3 123 9 170 79 307 455 624 784 662 89
11 169 12 218 2z"/>
<path d="M2335 2179 c-39 -39 -40 -41 -20 -55 19 -14 23 -12 57 28 26 31 34
46 26 55 -15 19 -20 17 -63 -28z"/>
<path d="M2225 2060 c-37 -38 -38 -41 -22 -58 17 -16 19 -15 52 23 34 39 41
65 20 72 -6 2 -28 -15 -50 -37z"/>
<path d="M2500 2044 c-26 -37 -30 -48 -19 -55 22 -14 25 -12 59 31 26 33 30
43 20 55 -18 22 -23 19 -60 -31z"/>
<path d="M4688 1928 c-15 -12 -10 -26 49 -135 62 -115 86 -142 99 -110 4 12
-104 228 -125 250 -4 4 -14 1 -23 -5z"/>
</g>
</svg>
